frame=  484 fps= 27 q=-1.0 size=N/A time=00:00:16.14 bitrate=N/A speed=0.886x   frame=  497 fps= 27 q=-1.0 size=N/A time=00:00:16.58 bitrate=N/A speed=0.884x   frame=  511 fps= 26 q=-1.0 size=N/A time=00:00:17.04 bitrate=N/A speed=0.883x   frame=  524 fps= 26 q=-1.0 size=N/A time=00:00:17.48 bitrate=N/A speed=0.882x   frame=  550 fps= 26 q=-1.0 size=N/A time=00:00:18.34 bitrate=N/A speed=0.879x   frame=  563 fps= 26 q=-1.0 size=N/A time=00:00:18.78 bitrate=N/A speed=0.878x   frame=  576 fps= 26 q=-1.0 size=N/A time=00:00:19.21 bitrate=N/A speed=0.877x   frame=  589 fps= 26 q=-1.0 size=N/A time=00:00:19.64 bitrate=N/A speed=0.876x   frame=  602 fps= 26 q=-1.0 size=N/A time=00:00:20.08 bitrate=N/A speed=0.875x   frame=  615 fps= 26 q=-1.0 size=N/A time=00:00:20.51 bitrate=N/A speed=0.874x   frame=  628 fps= 26 q=-1.0 size=N/A time=00:00:20.94 bitrate=N/A speed=0.873x   frame=  641 fps= 26 q=-1.0 size=N/A time=00:00:21.38 bitrate=N/A speed=0.872x   frame=  654 fps= 26 q=-1.0 size=N/A time=00:00:21.81 bitrate=N/A speed=0.872x   frame=  667 fps= 26 q=-1.0 size=N/A time=00:00:22.24 bitrate=N/A speed=0.871x   frame=  693 fps= 26 q=-1.0 size=N/A time=00:00:23.11 bitrate=N/A speed=0.869x   frame=  706 fps= 26 q=-1.0 size=N/A time=00:00:23.54 bitrate=N/A speed=0.869x   frame=  718 fps= 26 q=-1.0 size=N/A time=00:00:23.98 bitrate=N/A speed=0.868x   frame=  732 fps= 26 q=-1.0 size=N/A time=00:00:24.41 bitrate=N/A speed=0.867x   frame=  745 fps= 26 q=-1.0 size=N/A time=00:00:24.84 bitrate=N/A speed=0.867x   frame=  758 fps= 26 q=-1.0 size=N/A time=00:00:25.28 bitrate=N/A speed=0.866x   frame=  771 fps= 26 q=-1.0 size=N/A time=00:00:25.71 bitrate=N/A speed=0.866x   frame=  784 fps= 26 q=-1.0 size=N/A time=00:00:26.14 bitrate=N/A speed=0.865x   frame=  797 fps= 26 q=-1.0 size=N/A time=00:00:26.58 bitrate=N/A speed=0.865x   frame=  811 fps= 26 q=-1.0 size=N/A time=00:00:27.04 bitrate=N/A speed=0.864x   frame=  824 fps= 26 q=-1.0 size=N/A time=00:00:27.48 bitrate=N/A speed=0.863x   frame=  837 fps= 26 q=-1.0 size=N/A time=00:00:27.91 bitrate=N/A speed=0.863x   frame=  850 fps= 26 q=-1.0 size=N/A time=00:00:28.34 bitrate=N/A speed=0.862x   frame=  863 fps= 26 q=-1.0 size=N/A time=00:00:28.78 bitrate=N/A speed=0.862x   frame=  876 fps= 26 q=-1.0 size=N/A time=00:00:29.21 bitrate=N/A speed=0.862x   frame=  889 fps= 26 q=-1.0 size=N/A time=00:00:29.64 bitrate=N/A speed=0.861x   frame=  902 fps= 26 q=-1.0 size=N/A time=00:00:30.08 bitrate=N/A speed=0.861x   [rtsp @ 0xaaab160443b0] max delay reached. need to consume packetspeed=0.86x    
[rtsp @ 0xaaab160443b0] RTP: missed 98 packets
frame=  937 fps= 24 q=-1.0 size=N/A time=00:00:33.08 bitrate=N/A speed=0.856x   frame=  953 fps= 24 q=-1.0 size=N/A time=00:00:33.61 bitrate=N/A speed=0.858x   frame=  966 fps= 24 q=-1.0 size=N/A time=00:00:34.04 bitrate=N/A speed=0.857x   frame=  979 fps= 24 q=-1.0 size=N/A time=00:00:34.48 bitrate=N/A speed=0.857x   frame=  992 fps= 24 q=-1.0 size=N/A time=00:00:34.91 bitrate=N/A speed=0.857x   frame= 1005 fps= 24 q=-1.0 size=N/A time=00:00:35.34 bitrate=N/A speed=0.857x   frame= 1018 fps= 24 q=-1.0 size=N/A time=00:00:35.78 bitrate=N/A speed=0.856x   frame= 1031 fps= 24 q=-1.0 size=N/A time=00:00:36.21 bitrate=N/A speed=0.856x   [rtsp @ 0xaaab160443b0] max delay reached. need to consume packet
[rtsp @ 0xaaab160443b0] RTP: missed 95 packets
frame= 1035 fps= 23 q=-1.0 size=N/A time=00:00:38.28 bitrate=N/A speed=0.852x   frame= 1052 fps= 23 q=-1.0 size=N/A time=00:00:38.81 bitrate=N/A speed=0.854x   frame= 1065 fps= 23 q=-1.0 size=N/A time=00:00:39.24 bitrate=N/A speed=0.854x   frame= 1078 fps= 23 q=-1.0 size=N/A time=00:00:39.68 bitrate=N/A speed=0.854x   frame= 1091 fps= 23 q=-1.0 size=N/A time=00:00:40.11 bitrate=N/A speed=0.854x   frame= 1104 fps= 23 q=-1.0 size=N/A time=00:00:40.54 bitrate=N/A speed=0.854x   frame= 1117 fps= 23 q=-1.0 size=N/A time=00:00:40.98 bitrate=N/A speed=0.853x   frame= 1130 fps= 23 q=-1.0 size=N/A time=00:00:41.41 bitrate=N/A speed=0.853x   frame= 1143 fps= 23 q=-1.0 size=N/A time=00:00:41.84 bitrate=N/A speed=0.853x   frame= 1156 fps= 23 q=-1.0 size=N/A time=00:00:42.28 bitrate=N/A speed=0.853x   frame= 1169 fps= 23 q=-1.0 size=N/A time=00:00:42.71 bitrate=N/A speed=0.852x   frame= 1182 fps= 23 q=-1.0 size=N/A time=00:00:43.14 bitrate=N/A speed=0.852x   frame= 1195 fps= 23 q=-1.0 size=N/A time=00:00:43.58 bitrate=N/A speed=0.852x   frame= 1209 fps= 23 q=-1.0 size=N/A time=00:00:44.04 bitrate=N/A speed=0.852x   frame= 1222 fps= 23 q=-1.0 size=N/A time=00:00:44.48 bitrate=N/A speed=0.852x   frame= 1235 fps= 23 q=-1.0 size=N/A time=00:00:44.91 bitrate=N/A speed=0.851x   frame= 1248 fps= 23 q=-1.0 size=N/A time=00:00:45.34 bitrate=N/A speed=0.851x   frame= 1261 fps= 23 q=-1.0 size=N/A time=00:00:45.78 bitrate=N/A speed=0.851x   frame= 1274 fps= 23 q=-1.0 size=N/A time=00:00:46.21 bitrate=N/A speed=0.851x   frame= 1287 fps= 23 q=-1.0 size=N/A time=00:00:46.64 bitrate=N/A speed=0.851x   frame= 1300 fps= 23 q=-1.0 size=N/A time=00:00:47.08 bitrate=N/A speed=0.851x   [rtsp @ 0xaaab160443b0] max delay reached. need to consume packetspeed=0.85x    
[rtsp @ 0xaaab160443b0] RTP: missed 175 packets
frame= 1316 fps= 22 q=-1.0 size=N/A time=00:00:51.28 bitrate=N/A speed=0.848x   frame= 1333 fps= 22 q=-1.0 size=N/A time=00:00:51.81 bitrate=N/A speed=0.849x   frame= 1346 fps= 22 q=-1.0 size=N/A time=00:00:52.24 bitrate=N/A speed=0.849x   [rtsp @ 0xaaab160443b0] max delay reached. need to consume packet
[rtsp @ 0xaaab160443b0] RTP: missed 93 packets
frame= 1354 fps= 21 q=-1.0 size=N/A time=00:00:54.74 bitrate=N/A speed=0.847x   frame= 1370 fps= 21 q=-1.0 size=N/A time=00:00:55.28 bitrate=N/A speed=0.848x   frame= 1383 fps= 21 q=-1.0 size=N/A time=00:00:55.71 bitrate=N/A speed=0.848x   frame= 1396 fps= 21 q=-1.0 size=N/A time=00:00:56.14 bitrate=N/A speed=0.848x   frame= 1409 fps= 21 q=-1.0 size=N/A time=00:00:56.58 bitrate=N/A speed=0.848x   frame= 1423 fps= 21 q=-1.0 size=N/A time=00:00:57.04 bitrate=N/A speed=0.848x   frame= 1436 fps= 21 q=-1.0 size=N/A time=00:00:57.48 bitrate=N/A speed=0.847x   frame= 1449 fps= 21 q=-1.0 size=N/A time=00:00:57.91 bitrate=N/A speed=0.847x   frame= 1462 fps= 21 q=-1.0 size=N/A time=00:00:58.34 bitrate=N/A speed=0.847x   frame= 1475 fps= 21 q=-1.0 size=N/A time=00:00:58.78 bitrate=N/A speed=0.847x   frame= 1488 fps= 21 q=-1.0 size=N/A time=00:00:59.21 bitrate=N/A speed=0.847x   frame= 1501 fps= 21 q=-1.0 size=N/A time=00:00:59.64 bitrate=N/A speed=0.847x   frame= 1514 fps= 21 q=-1.0 size=N/A time=00:01:00.08 bitrate=N/A speed=0.847x   frame= 1527 fps= 21 q=-1.0 size=N/A time=00:01:00.51 bitrate=N/A speed=0.847x   frame= 1540 fps= 21 q=-1.0 size=N/A time=00:01:00.94 bitrate=N/A speed=0.847x   frame= 1553 fps= 21 q=-1.0 size=N/A time=00:01:01.38 bitrate=N/A speed=0.847x   frame= 1566 fps= 21 q=-1.0 size=N/A time=00:01:01.81 bitrate=N/A speed=0.846x   frame= 1579 fps= 21 q=-1.0 size=N/A time=00:01:02.24 bitrate=N/A speed=0.846x   frame= 1592 fps= 21 q=-1.0 size=N/A time=00:01:02.68 bitrate=N/A speed=0.846x   frame= 1605 fps= 22 q=-1.0 size=N/A time=00:01:03.11 bitrate=N/A speed=0.846x   frame= 1618 fps= 22 q=-1.0 size=N/A time=00:01:03.54 bitrate=N/A speed=0.846x   frame= 1631 fps= 22 q=-1.0 size=N/A time=00:01:03.98 bitrate=N/A speed=0.846x   frame= 1644 fps= 22 q=-1.0 size=N/A time=00:01:04.41 bitrate=N/A speed=0.846x   frame= 1657 fps= 22 q=-1.0 size=N/A time=00:01:04.84 bitrate=N/A speed=0.846x   frame= 1670 fps= 22 q=-1.0 size=N/A time=00:01:05.28 bitrate=N/A speed=0.846x   frame= 1683 fps= 22 q=-1.0 size=N/A time=00:01:05.71 bitrate=N/A speed=0.846x   frame= 1696 fps= 22 q=-1.0 size=N/A time=00:01:06.14 bitrate=N/A speed=0.846x   frame= 1709 fps= 22 q=-1.0 size=N/A time=00:01:06.58 bitrate=N/A speed=0.845x   frame= 1723 fps= 22 q=-1.0 size=N/A time=00:01:07.04 bitrate=N/A speed=0.845x   frame= 1736 fps= 22 q=-1.0 size=N/A time=00:01:07.48 bitrate=N/A speed=0.845x   frame= 1749 fps= 22 q=-1.0 size=N/A time=00:01:07.91 bitrate=N/A speed=0.845x   frame= 1762 fps= 22 q=-1.0 size=N/A time=00:01:08.34 bitrate=N/A speed=0.845x   frame= 1775 fps= 22 q=-1.0 size=N/A time=00:01:08.78 bitrate=N/A speed=0.845x   frame= 1788 fps= 22 q=-1.0 size=N/A time=00:01:09.21 bitrate=N/A speed=0.845x   frame= 1801 fps= 22 q=-1.0 size=N/A time=00:01:09.64 bitrate=N/A speed=0.845x   frame= 1814 fps= 22 q=-1.0 size=N/A time=00:01:10.08 bitrate=N/A speed=0.845x   frame= 1827 fps= 22 q=-1.0 size=N/A time=00:01:10.51 bitrate=N/A speed=0.845x   frame= 1840 fps= 22 q=-1.0 size=N/A time=00:01:10.94 bitrate=N/A speed=0.845x   frame= 1853 fps= 22 q=-1.0 size=N/A time=00:01:11.38 bitrate=N/A speed=0.845x   frame= 1866 fps= 22 q=-1.0 size=N/A time=00:01:11.81 bitrate=N/A speed=0.845x   frame= 1879 fps= 22 q=-1.0 size=N/A time=00:01:12.24 bitrate=N/A speed=0.845x   frame= 1893 fps= 22 q=-1.0 size=N/A time=00:01:12.68 bitrate=N/A speed=0.844x   frame= 1905 fps= 22 q=-1.0 size=N/A time=00:01:13.11 bitrate=N/A speed=0.844x   frame= 1918 fps= 22 q=-1.0 size=N/A time=00:01:13.54 bitrate=N/A speed=0.844x   frame= 1930 fps= 22 q=-1.0 size=N/A time=00:01:13.98 bitrate=N/A speed=0.844x   frame= 1944 fps= 22 q=-1.0 size=N/A time=00:01:14.41 bitrate=N/A speed=0.844x   frame= 1957 fps= 22 q=-1.0 size=N/A time=00:01:14.84 bitrate=N/A speed=0.844x   frame= 1970 fps= 22 q=-1.0 size=N/A time=00:01:15.28 bitrate=N/A speed=0.844x   frame= 1983 fps= 22 q=-1.0 size=N/A time=00:01:15.71 bitrate=N/A speed=0.844x   frame= 1996 fps= 22 q=-1.0 size=N/A time=00:01:16.14 bitrate=N/A speed=0.844x   frame= 2009 fps= 22 q=-1.0 size=N/A time=00:01:16.58 bitrate=N/A speed=0.844x   frame= 2023 fps= 22 q=-1.0 size=N/A time=00:01:17.04 bitrate=N/A speed=0.844x   frame= 2036 fps= 22 q=-1.0 size=N/A time=00:01:17.48 bitrate=N/A speed=0.844x   frame= 2049 fps= 22 q=-1.0 size=N/A time=00:01:17.91 bitrate=N/A speed=0.844x   frame= 2062 fps= 22 q=-1.0 size=N/A time=00:01:18.34 bitrate=N/A speed=0.844x   frame= 2075 fps= 22 q=-1.0 size=N/A time=00:01:18.78 bitrate=N/A speed=0.844x   frame= 2088 fps= 22 q=-1.0 size=N/A time=00:01:19.21 bitrate=N/A speed=0.844x   frame= 2101 fps= 22 q=-1.0 size=N/A time=00:01:19.64 bitrate=N/A speed=0.843x   frame= 2114 fps= 22 q=-1.0 size=N/A time=00:01:20.08 bitrate=N/A speed=0.843x   frame= 2127 fps= 22 q=-1.0 size=N/A time=00:01:20.51 bitrate=N/A speed=0.843x   frame= 2140 fps= 22 q=-1.0 size=N/A time=00:01:20.94 bitrate=N/A speed=0.843x   frame= 2153 fps= 22 q=-1.0 size=N/A time=00:01:21.38 bitrate=N/A speed=0.843x   frame= 2166 fps= 22 q=-1.0 size=N/A time=00:01:21.81 bitrate=N/A speed=0.843x   frame= 2179 fps= 22 q=-1.0 size=N/A time=00:01:22.24 bitrate=N/A speed=0.843x   frame= 2192 fps= 22 q=-1.0 size=N/A time=00:01:22.68 bitrate=N/A speed=0.843x   frame= 2205 fps= 22 q=-1.0 size=N/A time=00:01:23.11 bitrate=N/A speed=0.843x   frame= 2218 fps= 22 q=-1.0 size=N/A time=00:01:23.54 bitrate=N/A speed=0.843x   frame= 2230 fps= 22 q=-1.0 size=N/A time=00:01:23.98 bitrate=N/A speed=0.843x   frame= 2244 fps= 22 q=-1.0 size=N/A time=00:01:24.41 bitrate=N/A speed=0.843x   [rtsp @ 0xaaab160443b0] max delay reached. need to consume packet
[rtsp @ 0xaaab160443b0] RTP: missed 94 packets
frame= 2257 fps= 22 q=-1.0 size=N/A time=00:01:24.84 bitrate=N/A speed=0.843x   frame= 2258 fps= 22 q=-1.0 size=N/A time=00:01:26.81 bitrate=N/A speed=0.842x   frame= 2274 fps= 22 q=-1.0 size=N/A time=00:01:27.34 bitrate=N/A speed=0.843x   frame= 2287 fps= 22 q=-1.0 size=N/A time=00:01:27.78 bitrate=N/A speed=0.843x   frame= 2300 fps= 22 q=-1.0 size=N/A time=00:01:28.21 bitrate=N/A speed=0.842x   frame= 2313 fps= 22 q=-1.0 size=N/A time=00:01:28.64 bitrate=N/A speed=0.842x   [rtsp @ 0xaaab160443b0] max delay reached. need to consume packet
[rtsp @ 0xaaab160443b0] RTP: missed 104 packets
frame= 2324 fps= 21 q=-1.0 size=N/A time=00:01:31.14 bitrate=N/A speed=0.841x   frame= 2341 fps= 22 q=-1.0 size=N/A time=00:01:31.68 bitrate=N/A speed=0.842x   frame= 2354 fps= 22 q=-1.0 size=N/A time=00:01:32.11 bitrate=N/A speed=0.842x   frame= 2367 fps= 22 q=-1.0 size=N/A time=00:01:32.54 bitrate=N/A speed=0.842x   frame= 2379 fps= 22 q=-1.0 size=N/A time=00:01:32.98 bitrate=N/A speed=0.842x   frame= 2393 fps= 22 q=-1.0 size=N/A time=00:01:33.41 bitrate=N/A speed=0.842x   frame= 2406 fps= 22 q=-1.0 size=N/A time=00:01:33.84 bitrate=N/A speed=0.842x   frame= 2419 fps= 22 q=-1.0 size=N/A time=00:01:34.28 bitrate=N/A speed=0.842x   frame= 2432 fps= 22 q=-1.0 size=N/A time=00:01:34.71 bitrate=N/A speed=0.842x   frame= 2445 fps= 22 q=-1.0 size=N/A time=00:01:35.14 bitrate=N/A speed=0.842x   frame= 2458 fps= 22 q=-1.0 size=N/A time=00:01:35.58 bitrate=N/A speed=0.842x   frame= 2469 fps= 22 q=-1.0 Lsize=N/A time=00:01:35.91 bitrate=N/A speed=0.841x    
video:15756kB audio:0kB subtitle:0kB other streams:0kB global headers:0kB muxing overhead: unknown
Exiting normally, received signal 2.
(base) hialb@hialb:~/mediamtx_v1.11.0_linux_arm64v8$ ffmpeg -re -i "rtsp://192.168.1.25:8554/main.264" -vcodec copy -f rtsp rtsp:10.1.1.128:8554/stream 
ffmpeg version 6.0 Copyright (c) 2000-2023 the FFmpeg developers
  built with gcc 12.2.0 (conda-forge gcc 12.2.0-19)
  configuration: --prefix=/home/hialb/anaconda3 --cc=/home/conda/feedstock_root/build_artifacts/ffmpeg_1684241498192/_build_env/bin/aarch64-conda-linux-gnu-cc --cxx=/home/conda/feedstock_root/build_artifacts/ffmpeg_1684241498192/_build_env/bin/aarch64-conda-linux-gnu-c++ --nm=/home/conda/feedstock_root/build_artifacts/ffmpeg_1684241498192/_build_env/bin/aarch64-conda-linux-gnu-nm --ar=/home/conda/feedstock_root/build_artifacts/ffmpeg_1684241498192/_build_env/bin/aarch64-conda-linux-gnu-ar --disable-doc --disable-openssl --enable-demuxer=dash --enable-hardcoded-tables --enable-libfreetype --enable-libfontconfig --enable-libopenh264 --enable-libdav1d --enable-cross-compile --arch=aarch64 --target-os=linux --cross-prefix=aarch64-conda-linux-gnu- --host-cc=/home/conda/feedstock_root/build_artifacts/ffmpeg_1684241498192/_build_env/bin/x86_64-conda-linux-gnu-cc --enable-gnutls --enable-libmp3lame --enable-libvpx --enable-libass --enable-pthreads --enable-gpl --enable-libx264 --enable-libx265 --enable-libaom --enable-libsvtav1 --enable-libxml2 --enable-pic --enable-shared --disable-static --enable-version3 --enable-zlib --enable-libopus --pkg-config=/home/conda/feedstock_root/build_artifacts/ffmpeg_1684241498192/_build_env/bin/pkg-config
  libavutil      58.  2.100 / 58.  2.100
  libavcodec     60.  3.100 / 60.  3.100
  libavformat    60.  3.100 / 60.  3.100
  libavdevice    60.  1.100 / 60.  1.100
  libavfilter     9.  3.100 /  9.  3.100
  libswscale      7.  1.100 /  7.  1.100
  libswresample   4. 10.100 /  4. 10.100
  libpostproc    57.  1.100 / 57.  1.100
[h264 @ 0xaaaad67bc5a0] reference picture missing during reorder
[h264 @ 0xaaaad67bc5a0] Missing reference picture, default is 0
[h264 @ 0xaaaad67bc5a0] decode_slice_header error
Input #0, rtsp, from 'rtsp://192.168.1.25:8554/main.264':
  Metadata:
    title           : LIVE555 Streaming Media v2019.08.12
    comment         : LIVE555 Streaming Media v2019.08.12
  Duration: N/A, start: -0.381078, bitrate: N/A
  Stream #0:0: Video: h264 (High), yuv420p(progressive), 1280x720, 30 fps, 120 tbr, 90k tbn
Output #0, rtsp, to 'rtsp:10.1.1.128:8554/stream':
  Metadata:
    title           : LIVE555 Streaming Media v2019.08.12
    comment         : LIVE555 Streaming Media v2019.08.12
    encoder         : Lavf60.3.100
  Stream #0:0: Video: h264 (High), yuv420p(progressive), 1280x720, q=2-31, 30 fps, 120 tbr, 90k tbn
Stream mapping:
  Stream #0:0 -> #0:0 (copy)
Press [q] to stop, [?] for help
frame=    0 fps=0.0 q=-1.0 size=       0kB time=-577014:32:22.77 bitrate=  -0.0kframe=  181 fps= 30 q=-1.0 size=N/A time=00:00:06.08 bitrate=N/A speed=0.996x   frame=  194 fps= 29 q=-1.0 size=N/A time=00:00:06.51 bitrate=N/A speed=0.983x   [rtsp @ 0xaaaad67b83b0] max delay reached. need to consume packet
[rtsp @ 0xaaaad67b83b0] RTP: missed 131 packets
frame=  203 fps= 21 q=-1.0 size=N/A time=00:00:09.11 bitrate=N/A speed=0.924x   [rtsp @ 0xaaaad67b83b0] max delay reached. need to consume packet
[rtsp @ 0xaaaad67b83b0] RTP: missed 64 packets
[rtsp @ 0xaaaad67b83b0] max delay reached. need to consume packet
[rtsp @ 0xaaaad67b83b0] RTP: missed 98 packets
frame=  209 fps= 18 q=-1.0 size=N/A time=00:00:10.64 bitrate=N/A speed=0.911x   frame=  210 fps= 15 q=-1.0 size=N/A time=00:00:12.58 bitrate=N/A speed=0.897x   frame=  226 fps= 16 q=-1.0 size=N/A time=00:00:13.11 bitrate=N/A speed=0.901x   frame=  239 fps= 16 q=-1.0 size=N/A time=00:00:13.54 bitrate=N/A speed=0.899x   frame=  252 fps= 16 q=-1.0 size=N/A time=00:00:13.98 bitrate=N/A speed=0.897x   frame=  265 fps= 16 q=-1.0 size=N/A time=00:00:14.41 bitrate=N/A speed=0.895x   frame=  278 fps= 17 q=-1.0 size=N/A time=00:00:14.84 bitrate=N/A speed=0.893x   frame=  291 fps= 17 q=-1.0 size=N/A time=00:00:15.28 bitrate=N/A speed=0.891x   frame=  304 fps= 17 q=-1.0 size=N/A time=00:00:15.71 bitrate=N/A speed=0.889x   frame=  317 fps= 17 q=-1.0 size=N/A time=00:00:16.14 bitrate=N/A speed=0.888x   frame=  330 fps= 18 q=-1.0 size=N/A time=00:00:16.58 bitrate=N/A speed=0.886x   frame=  342 fps= 18 q=-1.0 size=N/A time=00:00:17.01 bitrate=N/A speed=0.885x   frame=  356 fps= 18 q=-1.0 size=N/A time=00:00:17.44 bitrate=N/A speed=0.884x   frame=  369 fps= 18 q=-1.0 size=N/A time=00:00:17.88 bitrate=N/A speed=0.882x   frame=  382 fps= 18 q=-1.0 size=N/A time=00:00:18.31 bitrate=N/A speed=0.881x   frame=  408 fps= 19 q=-1.0 size=N/A time=00:00:19.18 bitrate=N/A speed=0.879x   frame=  421 fps= 19 q=-1.0 size=N/A time=00:00:19.61 bitrate=N/A speed=0.878x   frame=  435 fps= 19 q=-1.0 size=N/A time=00:00:20.08 bitrate=N/A speed=0.877x   frame=  448 fps= 19 q=-1.0 size=N/A time=00:00:20.51 bitrate=N/A speed=0.876x   frame=  461 fps= 19 q=-1.0 size=N/A time=00:00:20.94 bitrate=N/A speed=0.875x   frame=  474 fps= 19 q=-1.0 size=N/A time=00:00:21.38 bitrate=N/A speed=0.874x   frame=  487 fps= 19 q=-1.0 size=N/A time=00:00:21.81 bitrate=N/A speed=0.873x   frame=  500 fps= 20 q=-1.0 size=N/A time=00:00:22.24 bitrate=N/A speed=0.872x   frame=  513 fps= 20 q=-1.0 size=N/A time=00:00:22.68 bitrate=N/A speed=0.871x   frame=  526 fps= 20 q=-1.0 size=N/A time=00:00:23.11 bitrate=N/A speed=0.871x   frame=  552 fps= 20 q=-1.0 size=N/A time=00:00:23.98 bitrate=N/A speed=0.869x   frame=  565 fps= 20 q=-1.0 size=N/A time=00:00:24.41 bitrate=N/A speed=0.869x   frame=  578 fps= 20 q=-1.0 size=N/A time=00:00:24.84 bitrate=N/A speed=0.868x   frame=  591 fps= 20 q=-1.0 size=N/A time=00:00:25.28 bitrate=N/A speed=0.867x   frame=  604 fps= 20 q=-1.0 size=N/A time=00:00:25.71 bitrate=N/A speed=0.867x   frame=  617 fps= 20 q=-1.0 size=N/A time=00:00:26.14 bitrate=N/A speed=0.866x   frame=  630 fps= 21 q=-1.0 size=N/A time=00:00:26.58 bitrate=N/A speed=0.866x   frame=  642 fps= 21 q=-1.0 size=N/A time=00:00:27.01 bitrate=N/A speed=0.865x   frame=  656 fps= 21 q=-1.0 size=N/A time=00:00:27.44 bitrate=N/A speed=0.865x   frame=  669 fps= 21 q=-1.0 size=N/A time=00:00:27.88 bitrate=N/A speed=0.864x   frame=  682 fps= 21 q=-1.0 size=N/A time=00:00:28.31 bitrate=N/A speed=0.864x   frame=  695 fps= 21 q=-1.0 size=N/A time=00:00:28.74 bitrate=N/A speed=0.863x   frame=  708 fps= 21 q=-1.0 size=N/A time=00:00:29.18 bitrate=N/A speed=0.863x   frame=  721 fps= 21 q=-1.0 size=N/A time=00:00:29.61 bitrate=N/A speed=0.862x   frame=  735 fps= 21 q=-1.0 size=N/A time=00:00:30.08 bitrate=N/A speed=0.862x   frame=  748 fps= 21 q=-1.0 size=N/A time=00:00:30.51 bitrate=N/A speed=0.861x   frame=  761 fps= 21 q=-1.0 size=N/A time=00:00:30.94 bitrate=N/A speed=0.861x   frame=  813 fps= 21 q=-1.0 size=N/A time=00:00:32.68 bitrate=N/A speed=0.859x   frame=  826 fps= 21 q=-1.0 size=N/A time=00:00:33.11 bitrate=N/A speed=0.859x   frame=  839 fps= 21 q=-1.0 size=N/A time=00:00:33.54 bitrate=N/A speed=0.859x   frame=  852 fps= 22 q=-1.0 size=N/A time=00:00:33.98 bitrate=N/A speed=0.858x   frame=  865 fps= 22 q=-1.0 size=N/A time=00:00:34.41 bitrate=N/A speed=0.858x   frame=  878 fps= 22 q=-1.0 size=N/A time=00:00:34.84 bitrate=N/A speed=0.858x   frame=  891 fps= 22 q=-1.0 size=N/A time=00:00:35.28 bitrate=N/A speed=0.857x   frame=  904 fps= 22 q=-1.0 size=N/A time=00:00:35.71 bitrate=N/A speed=0.857x   frame=  917 fps= 22 q=-1.0 size=N/A time=00:00:36.14 bitrate=N/A speed=0.857x   frame=  930 fps= 22 q=-1.0 size=N/A time=00:00:36.58 bitrate=N/A speed=0.857x   frame=  942 fps= 22 q=-1.0 size=N/A time=00:00:37.01 bitrate=N/A speed=0.856x   frame=  956 fps= 22 q=-1.0 size=N/A time=00:00:37.44 bitrate=N/A speed=0.856x   frame=  969 fps= 22 q=-1.0 size=N/A time=00:00:37.88 bitrate=N/A speed=0.856x   frame=  982 fps= 22 q=-1.0 size=N/A time=00:00:38.31 bitrate=N/A speed=0.855x   frame=  995 fps= 22 q=-1.0 size=N/A time=00:00:38.74 bitrate=N/A speed=0.855x   frame= 1008 fps= 22 q=-1.0 size=N/A time=00:00:39.18 bitrate=N/A speed=0.855x   frame= 1021 fps= 22 q=-1.0 size=N/A time=00:00:39.61 bitrate=N/A speed=0.855x   frame= 1035 fps= 22 q=-1.0 size=N/A time=00:00:40.08 bitrate=N/A speed=0.854x   frame= 1048 fps= 22 q=-1.0 size=N/A time=00:00:40.51 bitrate=N/A speed=0.854x   frame= 1061 fps= 22 q=-1.0 size=N/A time=00:00:40.94 bitrate=N/A speed=0.854x   frame= 1074 fps= 22 q=-1.0 size=N/A time=00:00:41.38 bitrate=N/A speed=0.854x   frame= 1087 fps= 22 q=-1.0 size=N/A time=00:00:41.81 bitrate=N/A speed=0.854x   frame= 1100 fps= 22 q=-1.0 size=N/A time=00:00:42.24 bitrate=N/A speed=0.853x   frame= 1113 fps= 22 q=-1.0 size=N/A time=00:00:42.68 bitrate=N/A speed=0.853x   frame= 1126 fps= 22 q=-1.0 size=N/A time=00:00:43.11 bitrate=N/A speed=0.853x   frame= 1139 fps= 22 q=-1.0 size=N/A time=00:00:43.54 bitrate=N/A speed=0.853x   frame= 1152 fps= 22 q=-1.0 size=N/A time=00:00:43.98 bitrate=N/A speed=0.853x   frame= 1165 fps= 22 q=-1.0 size=N/A time=00:00:44.41 bitrate=N/A speed=0.852x   frame= 1178 fps= 22 q=-1.0 size=N/A time=00:00:44.84 bitrate=N/A speed=0.852x   frame= 1191 fps= 22 q=-1.0 size=N/A time=00:00:45.28 bitrate=N/A speed=0.852x   frame= 1204 fps= 22 q=-1.0 size=N/A time=00:00:45.71 bitrate=N/A speed=0.852x   frame= 1217 fps= 22 q=-1.0 size=N/A time=00:00:46.14 bitrate=N/A speed=0.852x   frame= 1230 fps= 22 q=-1.0 size=N/A time=00:00:46.58 bitrate=N/A speed=0.851x   frame= 1242 fps= 22 q=-1.0 size=N/A time=00:00:47.01 bitrate=N/A speed=0.851x   frame= 1256 fps= 23 q=-1.0 size=N/A time=00:00:47.44 bitrate=N/A speed=0.851x   frame= 1269 fps= 23 q=-1.0 size=N/A time=00:00:47.88 bitrate=N/A speed=0.851x   frame= 1282 fps= 23 q=-1.0 size=N/A time=00:00:48.31 bitrate=N/A speed=0.851x   frame= 1295 fps= 23 q=-1.0 size=N/A time=00:00:48.74 bitrate=N/A speed=0.851x   [rtsp @ 0xaaaad67b83b0] max delay reached. need to consume packetspeed=0.85x    
[rtsp @ 0xaaaad67b83b0] RTP: missed 64 packets
[rtsp @ 0xaaaad67b83b0] max delay reached. need to consume packet
[rtsp @ 0xaaaad67b83b0] RTP: missed 83 packets
[rtsp @ 0xaaaad67b83b0] max delay reached. need to consume packet
[rtsp @ 0xaaaad67b83b0] RTP: missed 216 packets
frame= 1338 fps= 22 q=-1.0 size=N/A time=00:00:51.54 bitrate=N/A speed=0.848x   frame= 1339 fps= 20 q=-1.0 size=N/A time=00:00:57.64 bitrate=N/A speed=0.846x   frame= 1355 fps= 20 q=-1.0 size=N/A time=00:00:58.18 bitrate=N/A speed=0.848x   frame= 1368 fps= 20 q=-1.0 size=N/A time=00:00:58.61 bitrate=N/A speed=0.848x   frame= 1382 fps= 20 q=-1.0 size=N/A time=00:00:59.08 bitrate=N/A speed=0.848x   [rtsp @ 0xaaaad67b83b0] max delay reached. need to consume packet
[rtsp @ 0xaaaad67b83b0] RTP: missed 214 packets
frame= 1393 fps= 18 q=-1.0 size=N/A time=00:01:03.71 bitrate=N/A speed=0.845x   frame= 1409 fps= 19 q=-1.0 size=N/A time=00:01:04.24 bitrate=N/A speed=0.846x   frame= 1422 fps= 19 q=-1.0 size=N/A time=00:01:04.68 bitrate=N/A speed=0.846x   frame= 1435 fps= 19 q=-1.0 size=N/A time=00:01:05.11 bitrate=N/A speed=0.846x   frame= 1448 fps= 19 q=-1.0 size=N/A time=00:01:05.54 bitrate=N/A speed=0.846x   frame= 1461 fps= 19 q=-1.0 size=N/A time=00:01:05.98 bitrate=N/A speed=0.846x   frame= 1474 fps= 19 q=-1.0 size=N/A time=00:01:06.41 bitrate=N/A speed=0.846x   frame= 1487 fps= 19 q=-1.0 size=N/A time=00:01:06.84 bitrate=N/A speed=0.846x   frame= 1500 fps= 19 q=-1.0 size=N/A time=00:01:07.28 bitrate=N/A speed=0.846x   frame= 1513 fps= 19 q=-1.0 size=N/A time=00:01:07.71 bitrate=N/A speed=0.846x   frame= 1526 fps= 19 q=-1.0 size=N/A time=00:01:08.14 bitrate=N/A speed=0.846x   frame= 1539 fps= 19 q=-1.0 size=N/A time=00:01:08.58 bitrate=N/A speed=0.846x   frame= 1552 fps= 19 q=-1.0 size=N/A time=00:01:09.01 bitrate=N/A speed=0.845x   frame= 1565 fps= 19 q=-1.0 size=N/A time=00:01:09.44 bitrate=N/A speed=0.845x   frame= 1578 fps= 19 q=-1.0 size=N/A time=00:01:09.88 bitrate=N/A speed=0.845x   frame= 1591 fps= 19 q=-1.0 size=N/A time=00:01:10.31 bitrate=N/A speed=0.845x   frame= 1604 fps= 19 q=-1.0 size=N/A time=00:01:10.74 bitrate=N/A speed=0.845x   frame= 1617 fps= 19 q=-1.0 size=N/A time=00:01:11.18 bitrate=N/A speed=0.845x   frame= 1630 fps= 19 q=-1.0 size=N/A time=00:01:11.61 bitrate=N/A speed=0.845x   frame= 1644 fps= 19 q=-1.0 size=N/A time=00:01:12.08 bitrate=N/A speed=0.845x   frame= 1657 fps= 19 q=-1.0 size=N/A time=00:01:12.51 bitrate=N/A speed=0.845x   frame= 1670 fps= 19 q=-1.0 size=N/A time=00:01:12.94 bitrate=N/A speed=0.845x   frame= 1683 fps= 19 q=-1.0 size=N/A time=00:01:13.38 bitrate=N/A speed=0.845x   frame= 1696 fps= 19 q=-1.0 size=N/A time=00:01:13.81 bitrate=N/A speed=0.845x   frame= 1709 fps= 19 q=-1.0 size=N/A time=00:01:14.24 bitrate=N/A speed=0.845x   frame= 1722 fps= 19 q=-1.0 size=N/A time=00:01:14.68 bitrate=N/A speed=0.845x   frame= 1735 fps= 20 q=-1.0 size=N/A time=00:01:15.11 bitrate=N/A speed=0.844x   frame= 1748 fps= 20 q=-1.0 size=N/A time=00:01:15.54 bitrate=N/A speed=0.844x   frame= 1761 fps= 20 q=-1.0 size=N/A time=00:01:15.98 bitrate=N/A speed=0.844x   frame= 1774 fps= 20 q=-1.0 size=N/A time=00:01:16.41 bitrate=N/A speed=0.844x   frame= 1787 fps= 20 q=-1.0 size=N/A time=00:01:16.84 bitrate=N/A speed=0.844x   frame= 1800 fps= 20 q=-1.0 size=N/A time=00:01:17.28 bitrate=N/A speed=0.844x   frame= 1813 fps= 20 q=-1.0 size=N/A time=00:01:17.71 bitrate=N/A speed=0.844x   frame= 1826 fps= 20 q=-1.0 size=N/A time=00:01:18.14 bitrate=N/A speed=0.844x   frame= 1839 fps= 20 q=-1.0 size=N/A time=00:01:18.58 bitrate=N/A speed=0.844x   frame= 1852 fps= 20 q=-1.0 size=N/A time=00:01:19.01 bitrate=N/A speed=0.844x   frame= 1865 fps= 20 q=-1.0 size=N/A time=00:01:19.44 bitrate=N/A speed=0.844x   frame= 1878 fps= 20 q=-1.0 size=N/A time=00:01:19.88 bitrate=N/A speed=0.844x   frame= 1891 fps= 20 q=-1.0 size=N/A time=00:01:20.31 bitrate=N/A speed=0.844x   frame= 1904 fps= 20 q=-1.0 size=N/A time=00:01:20.74 bitrate=N/A speed=0.844x   frame= 1917 fps= 20 q=-1.0 size=N/A time=00:01:21.18 bitrate=N/A speed=0.844x   frame= 1930 fps= 20 q=-1.0 size=N/A time=00:01:21.61 bitrate=N/A speed=0.844x   frame= 1945 fps= 20 q=-1.0 size=N/A time=00:01:22.08 bitrate=N/A speed=0.843x   frame= 1957 fps= 20 q=-1.0 size=N/A time=00:01:22.51 bitrate=N/A speed=0.843x   frame= 1970 fps= 20 q=-1.0 size=N/A time=00:01:22.94 bitrate=N/A speed=0.843x   frame= 1983 fps= 20 q=-1.0 size=N/A time=00:01:23.38 bitrate=N/A speed=0.843x   frame= 1996 fps= 20 q=-1.0 size=N/A time=00:01:23.81 bitrate=N/A speed=0.843x   frame= 2009 fps= 20 q=-1.0 size=N/A time=00:01:24.24 bitrate=N/A speed=0.843x   frame= 2022 fps= 20 q=-1.0 size=N/A time=00:01:24.68 bitrate=N/A speed=0.843x   [rtsp @ 0xaaaad67b83b0] max delay reached. need to consume packet
[rtsp @ 0xaaaad67b83b0] RTP: missed 100 packets
frame= 2035 fps= 20 q=-1.0 size=N/A time=00:01:27.11 bitrate=N/A speed=0.842x   frame= 2051 fps= 20 q=-1.0 size=N/A time=00:01:27.64 bitrate=N/A speed=0.843x   frame= 2064 fps= 20 q=-1.0 size=N/A time=00:01:28.08 bitrate=N/A speed=0.843x   frame= 2077 fps= 20 q=-1.0 size=N/A time=00:01:28.51 bitrate=N/A speed=0.843x   frame= 2090 fps= 20 q=-1.0 size=N/A time=00:01:28.94 bitrate=N/A speed=0.843x   frame= 2103 fps= 20 q=-1.0 size=N/A time=00:01:29.38 bitrate=N/A speed=0.843x   frame= 2116 fps= 20 q=-1.0 size=N/A time=00:01:29.81 bitrate=N/A speed=0.843x   frame= 2129 fps= 20 q=-1.0 size=N/A time=00:01:30.24 bitrate=N/A speed=0.843x   frame= 2142 fps= 20 q=-1.0 size=N/A time=00:01:30.68 bitrate=N/A speed=0.843x   frame= 2155 fps= 20 q=-1.0 size=N/A time=00:01:31.11 bitrate=N/A speed=0.842x   frame= 2168 fps= 20 q=-1.0 size=N/A time=00:01:31.54 bitrate=N/A speed=0.842x   frame= 2181 fps= 20 q=-1.0 size=N/A time=00:01:31.98 bitrate=N/A speed=0.842x   frame= 2194 fps= 20 q=-1.0 size=N/A time=00:01:32.41 bitrate=N/A speed=0.842x   frame= 2207 fps= 20 q=-1.0 size=N/A time=00:01:32.84 bitrate=N/A speed=0.842x   frame= 2220 fps= 20 q=-1.0 size=N/A time=00:01:33.28 bitrate=N/A speed=0.842x   frame= 2233 fps= 20 q=-1.0 size=N/A time=00:01:33.71 bitrate=N/A speed=0.842x   frame= 2246 fps= 20 q=-1.0 size=N/A time=00:01:34.14 bitrate=N/A speed=0.842x   frame= 2259 fps= 20 q=-1.0 size=N/A time=00:01:34.58 bitrate=N/A speed=0.842x   frame= 2272 fps= 20 q=-1.0 size=N/A time=00:01:35.01 bitrate=N/A speed=0.842x   frame= 2285 fps= 20 q=-1.0 size=N/A time=00:01:35.44 bitrate=N/A speed=0.842x   frame= 2298 fps= 20 q=-1.0 size=N/A time=00:01:35.88 bitrate=N/A speed=0.842x   frame= 2311 fps= 20 q=-1.0 size=N/A time=00:01:36.31 bitrate=N/A speed=0.842x   frame= 2324 fps= 20 q=-1.0 size=N/A time=00:01:36.74 bitrate=N/A speed=0.842x   frame= 2337 fps= 20 q=-1.0 size=N/A time=00:01:37.18 bitrate=N/A speed=0.842x   frame= 2350 fps= 20 q=-1.0 size=N/A time=00:01:37.61 bitrate=N/A speed=0.842x   frame= 2364 fps= 20 q=-1.0 size=N/A time=00:01:38.08 bitrate=N/A speed=0.842x   frame= 2377 fps= 20 q=-1.0 size=N/A time=00:01:38.51 bitrate=N/A speed=0.842x   frame= 2390 fps= 20 q=-1.0 size=N/A time=00:01:38.94 bitrate=N/A speed=0.842x   frame= 2403 fps= 20 q=-1.0 size=N/A time=00:01:39.38 bitrate=N/A speed=0.842x   frame= 2416 fps= 20 q=-1.0 size=N/A time=00:01:39.81 bitrate=N/A speed=0.842x   frame= 2429 fps= 20 q=-1.0 size=N/A time=00:01:40.24 bitrate=N/A speed=0.842x   frame= 2442 fps= 20 q=-1.0 size=N/A time=00:01:40.68 bitrate=N/A speed=0.842x   frame= 2455 fps= 20 q=-1.0 size=N/A time=00:01:41.11 bitrate=N/A speed=0.842x   frame= 2468 fps= 20 q=-1.0 size=N/A time=00:01:41.54 bitrate=N/A speed=0.842x   frame= 2481 fps= 20 q=-1.0 size=N/A time=00:01:41.98 bitrate=N/A speed=0.841x   frame= 2494 fps= 20 q=-1.0 size=N/A time=00:01:42.41 bitrate=N/A speed=0.841x   frame= 2507 fps= 21 q=-1.0 size=N/A time=00:01:42.84 bitrate=N/A speed=0.841x   frame= 2520 fps= 21 q=-1.0 size=N/A time=00:01:43.28 bitrate=N/A speed=0.841x   frame= 2533 fps= 21 q=-1.0 size=N/A time=00:01:43.71 bitrate=N/A speed=0.841x   frame= 2546 fps= 21 q=-1.0 size=N/A time=00:01:44.14 bitrate=N/A speed=0.841x   frame= 2559 fps= 21 q=-1.0 size=N/A time=00:01:44.58 bitrate=N/A speed=0.841x   frame= 2572 fps= 21 q=-1.0 size=N/A time=00:01:45.01 bitrate=N/A speed=0.841x   frame= 2585 fps= 21 q=-1.0 size=N/A time=00:01:45.44 bitrate=N/A speed=0.841x   frame= 2598 fps= 21 q=-1.0 size=N/A time=00:01:45.88 bitrate=N/A speed=0.841x   frame= 2611 fps= 21 q=-1.0 size=N/A time=00:01:46.31 bitrate=N/A speed=0.841x   frame= 2624 fps= 21 q=-1.0 size=N/A time=00:01:46.74 bitrate=N/A speed=0.841x   frame= 2637 fps= 21 q=-1.0 size=N/A time=00:01:47.18 bitrate=N/A speed=0.841x   frame= 2650 fps= 21 q=-1.0 size=N/A time=00:01:47.61 bitrate=N/A speed=0.841x   frame= 2664 fps= 21 q=-1.0 size=N/A time=00:01:48.08 bitrate=N/A speed=0.841x   frame= 2677 fps= 21 q=-1.0 size=N/A time=00:01:48.51 bitrate=N/A speed=0.841x   frame= 2690 fps= 21 q=-1.0 size=N/A time=00:01:48.94 bitrate=N/A speed=0.841x   frame= 2703 fps= 21 q=-1.0 size=N/A time=00:01:49.37 bitrate=N/A speed=0.841x   frame= 2716 fps= 21 q=-1.0 size=N/A time=00:01:49.81 bitrate=N/A speed=0.841x   frame= 2729 fps= 21 q=-1.0 size=N/A time=00:01:50.24 bitrate=N/A speed=0.841x   frame= 2742 fps= 21 q=-1.0 size=N/A time=00:01:50.67 bitrate=N/A speed=0.841x   frame= 2755 fps= 21 q=-1.0 size=N/A time=00:01:51.11 bitrate=N/A speed=0.841x   frame= 2768 fps= 21 q=-1.0 size=N/A time=00:01:51.54 bitrate=N/A speed=0.841x   frame= 2781 fps= 21 q=-1.0 size=N/A time=00:01:51.97 bitrate=N/A speed=0.841x   frame= 2794 fps= 21 q=-1.0 size=N/A time=00:01:52.41 bitrate=N/A speed=0.841x   frame= 2807 fps= 21 q=-1.0 size=N/A time=00:01:52.84 bitrate=N/A speed=0.841x   frame= 2820 fps= 21 q=-1.0 size=N/A time=00:01:53.27 bitrate=N/A speed=0.841x   frame= 2833 fps= 21 q=-1.0 size=N/A time=00:01:53.71 bitrate=N/A speed=0.841x   frame= 2846 fps= 21 q=-1.0 size=N/A time=00:01:54.14 bitrate=N/A speed=0.841x   frame= 2859 fps= 21 q=-1.0 size=N/A time=00:01:54.57 bitrate=N/A speed=0.841x   frame= 2872 fps= 21 q=-1.0 size=N/A time=00:01:55.01 bitrate=N/A speed=0.841x   frame= 2885 fps= 21 q=-1.0 size=N/A time=00:01:55.44 bitrate=N/A speed=0.841x   [rtsp @ 0xaaaad67b83b0] max delay reached. need to consume packetspeed=0.84x    
[rtsp @ 0xaaaad67b83b0] RTP: missed 134 packets
frame= 3344 fps= 21 q=-1.0 size=N/A time=00:02:14.51 bitrate=N/A speed=0.839x   frame= 3357 fps= 21 q=-1.0 size=N/A time=00:02:14.94 bitrate=N/A speed=0.839x   frame= 3370 fps= 21 q=-1.0 size=N/A time=00:02:15.37 bitrate=N/A speed=0.839x   frame= 3383 fps= 21 q=-1.0 size=N/A time=00:02:15.81 bitrate=N/A speed=0.839x   frame= 3396 fps= 21 q=-1.0 size=N/A time=00:02:16.24 bitrate=N/A speed=0.839x   frame= 3409 fps= 21 q=-1.0 size=N/A time=00:02:16.67 bitrate=N/A speed=0.839x   frame= 3422 fps= 21 q=-1.0 size=N/A time=00:02:17.11 bitrate=N/A speed=0.839x   frame= 3435 fps= 21 q=-1.0 size=N/A time=00:02:17.54 bitrate=N/A speed=0.839x   frame= 3448 fps= 21 q=-1.0 size=N/A time=00:02:17.97 bitrate=N/A speed=0.839x   frame= 3461 fps= 21 q=-1.0 size=N/A time=00:02:18.41 bitrate=N/A speed=0.839x   frame= 3474 fps= 21 q=-1.0 size=N/A time=00:02:18.84 bitrate=N/A speed=0.839x   frame= 3487 fps= 21 q=-1.0 size=N/A time=00:02:19.27 bitrate=N/A speed=0.839x   frame= 3500 fps= 21 q=-1.0 size=N/A time=00:02:19.71 bitrate=N/A speed=0.839x   frame= 3513 fps= 21 q=-1.0 size=N/A time=00:02:20.14 bitrate=N/A speed=0.839x   frame= 3526 fps= 21 q=-1.0 size=N/A time=00:02:20.57 bitrate=N/A speed=0.839x   frame= 3538 fps= 21 q=-1.0 size=N/A time=00:02:21.01 bitrate=N/A speed=0.839x   frame= 3552 fps= 21 q=-1.0 size=N/A time=00:02:21.44 bitrate=N/A speed=0.839x   frame= 3565 fps= 21 q=-1.0 size=N/A time=00:02:21.87 bitrate=N/A speed=0.839x   frame= 3578 fps= 21 q=-1.0 size=N/A time=00:02:22.31 bitrate=N/A speed=0.839x   frame= 3591 fps= 21 q=-1.0 size=N/A time=00:02:22.74 bitrate=N/A speed=0.839x   [rtsp @ 0xaaaad67b83b0] max delay reached. need to consume packet
[rtsp @ 0xaaaad67b83b0] RTP: missed 95 packets
frame= 3597 fps= 21 q=-1.0 size=N/A time=00:02:25.17 bitrate=N/A speed=0.838x   frame= 3614 fps= 21 q=-1.0 size=N/A time=00:02:25.71 bitrate=N/A speed=0.839x   frame= 3627 fps= 21 q=-1.0 size=N/A time=00:02:26.14 bitrate=N/A speed=0.839x   frame= 3640 fps= 21 q=-1.0 size=N/A time=00:02:26.57 bitrate=N/A speed=0.839x   frame= 3652 fps= 21 q=-1.0 size=N/A time=00:02:27.01 bitrate=N/A speed=0.839x   frame= 3666 fps= 21 q=-1.0 size=N/A time=00:02:27.44 bitrate=N/A speed=0.839x   frame= 3679 fps= 21 q=-1.0 size=N/A time=00:02:27.87 bitrate=N/A speed=0.839x   frame= 3692 fps= 21 q=-1.0 size=N/A time=00:02:28.31 bitrate=N/A speed=0.839x   frame= 3705 fps= 21 q=-1.0 size=N/A time=00:02:28.74 bitrate=N/A speed=0.839x   frame= 3718 fps= 21 q=-1.0 size=N/A time=00:02:29.17 bitrate=N/A speed=0.839x   frame= 3731 fps= 21 q=-1.0 size=N/A time=00:02:29.61 bitrate=N/A speed=0.839x   frame= 3745 fps= 21 q=-1.0 size=N/A time=00:02:30.07 bitrate=N/A speed=0.839x   frame= 3758 fps= 21 q=-1.0 size=N/A time=00:02:30.51 bitrate=N/A speed=0.839x   frame= 3771 fps= 21 q=-1.0 size=N/A time=00:02:30.94 bitrate=N/A speed=0.839x   frame= 3784 fps= 21 q=-1.0 size=N/A time=00:02:31.37 bitrate=N/A speed=0.839x   frame= 3797 fps= 21 q=-1.0 size=N/A time=00:02:31.81 bitrate=N/A speed=0.839x   frame= 3810 fps= 21 q=-1.0 size=N/A time=00:02:32.24 bitrate=N/A speed=0.839x   frame= 3823 fps= 21 q=-1.0 size=N/A time=00:02:32.67 bitrate=N/A speed=0.839x   frame= 3836 fps= 21 q=-1.0 size=N/A time=00:02:33.11 bitrate=N/A speed=0.839x   frame= 3849 fps= 21 q=-1.0 size=N/A time=00:02:33.54 bitrate=N/A speed=0.839x   frame= 3862 fps= 21 q=-1.0 size=N/A time=00:02:33.97 bitrate=N/A speed=0.839x   frame= 3875 fps= 21 q=-1.0 size=N/A time=00:02:34.41 bitrate=N/A speed=0.839x   frame= 3888 fps= 21 q=-1.0 size=N/A time=00:02:34.84 bitrate=N/A speed=0.839x   frame= 3901 fps= 21 q=-1.0 size=N/A time=00:02:35.27 bitrate=N/A speed=0.839x   frame= 3914 fps= 21 q=-1.0 size=N/A time=00:02:35.71 bitrate=N/A speed=0.839x   [rtsp @ 0xaaaad67b83b0] CSeq 9 expected, 8 received.
frame= 3927 fps= 21 q=-1.0 size=N/A time=00:02:36.14 bitrate=N/A speed=0.839x   frame= 3940 fps= 21 q=-1.0 size=N/A time=00:02:36.57 bitrate=N/A speed=0.839x   frame= 3952 fps= 21 q=-1.0 size=N/A time=00:02:37.01 bitrate=N/A speed=0.839x   [rtsp @ 0xaaaad67b83b0] max delay reached. need to consume packet
[rtsp @ 0xaaaad67b83b0] RTP: missed 193 packets
frame= 3962 fps= 21 q=-1.0 size=N/A time=00:02:41.64 bitrate=N/A speed=0.838x   [rtsp @ 0xaaaad67b83b0] max delay reached. need to consume packet
[rtsp @ 0xaaaad67b83b0] RTP: missed 69 packets
[rtsp @ 0xaaaad67b83b0] max delay reached. need to consume packet
[rtsp @ 0xaaaad67b83b0] RTP: missed 141 packets
frame= 3968 fps= 20 q=-1.0 size=N/A time=00:02:43.21 bitrate=N/A speed=0.838x   frame= 3969 fps= 20 q=-1.0 size=N/A time=00:02:46.84 bitrate=N/A speed=0.838x   frame= 3985 fps= 20 q=-1.0 size=N/A time=00:02:47.37 bitrate=N/A speed=0.838x   frame= 3998 fps= 20 q=-1.0 size=N/A time=00:02:47.81 bitrate=N/A speed=0.838x   frame= 4011 fps= 20 q=-1.0 size=N/A time=00:02:48.24 bitrate=N/A speed=0.838x   frame= 4024 fps= 20 q=-1.0 size=N/A time=00:02:48.67 bitrate=N/A speed=0.838x   frame= 4037 fps= 20 q=-1.0 size=N/A time=00:02:49.11 bitrate=N/A speed=0.838x   frame= 4050 fps= 20 q=-1.0 size=N/A time=00:02:49.54 bitrate=N/A speed=0.838x   frame= 4063 fps= 20 q=-1.0 size=N/A time=00:02:49.97 bitrate=N/A speed=0.838x   frame= 4076 fps= 20 q=-1.0 size=N/A time=00:02:50.41 bitrate=N/A speed=0.838x   frame= 4089 fps= 20 q=-1.0 size=N/A time=00:02:50.84 bitrate=N/A speed=0.838x   frame= 4102 fps= 20 q=-1.0 size=N/A time=00:02:51.27 bitrate=N/A speed=0.838x   frame= 4115 fps= 20 q=-1.0 size=N/A time=00:02:51.71 bitrate=N/A speed=0.838x   frame= 4128 fps= 20 q=-1.0 size=N/A time=00:02:52.14 bitrate=N/A speed=0.838x   frame= 4141 fps= 20 q=-1.0 size=N/A time=00:02:52.57 bitrate=N/A speed=0.838x   frame= 4153 fps= 20 q=-1.0 size=N/A time=00:02:53.01 bitrate=N/A speed=0.838x   frame= 4167 fps= 20 q=-1.0 size=N/A time=00:02:53.44 bitrate=N/A speed=0.838x   frame= 4180 fps= 20 q=-1.0 size=N/A time=00:02:53.87 bitrate=N/A speed=0.838x   frame= 4193 fps= 20 q=-1.0 size=N/A time=00:02:54.31 bitrate=N/A speed=0.838x   frame= 4206 fps= 20 q=-1.0 size=N/A time=00:02:54.74 bitrate=N/A speed=0.838x   [rtsp @ 0xaaaad67b83b0] max delay reached. need to consume packet
[rtsp @ 0xaaaad67b83b0] RTP: missed 62 packets
[rtsp @ 0xaaaad67b83b0] max delay reached. need to consume packet
[rtsp @ 0xaaaad67b83b0] RTP: missed 73 packets
frame= 4212 fps= 20 q=-1.0 size=N/A time=00:02:56.31 bitrate=N/A speed=0.838x   frame= 4213 fps= 20 q=-1.0 size=N/A time=00:02:58.11 bitrate=N/A speed=0.837x   frame= 4229 fps= 20 q=-1.0 size=N/A time=00:02:58.64 bitrate=N/A speed=0.838x   frame= 4242 fps= 20 q=-1.0 size=N/A time=00:02:59.07 bitrate=N/A speed=0.838x   frame= 4255 fps= 20 q=-1.0 size=N/A time=00:02:59.51 bitrate=N/A speed=0.838x   frame= 4268 fps= 20 q=-1.0 size=N/A time=00:02:59.94 bitrate=N/A speed=0.838x   frame= 4281 fps= 20 q=-1.0 size=N/A time=00:03:00.37 bitrate=N/A speed=0.838x   frame= 4294 fps= 20 q=-1.0 size=N/A time=00:03:00.81 bitrate=N/A speed=0.838x   frame= 4307 fps= 20 q=-1.0 size=N/A time=00:03:01.24 bitrate=N/A speed=0.838x   frame= 4320 fps= 20 q=-1.0 size=N/A time=00:03:01.67 bitrate=N/A speed=0.838x   [rtsp @ 0xaaaad67b83b0] max delay reached. need to consume packet
[rtsp @ 0xaaaad67b83b0] RTP: missed 169 packets
frame= 4332 fps= 20 q=-1.0 size=N/A time=00:03:05.94 bitrate=N/A speed=0.837x   frame= 4347 fps= 20 q=-1.0 size=N/A time=00:03:06.44 bitrate=N/A speed=0.838x   frame= 4360 fps= 20 q=-1.0 size=N/A time=00:03:06.87 bitrate=N/A speed=0.838x   frame= 4373 fps= 20 q=-1.0 size=N/A time=00:03:07.31 bitrate=N/A speed=0.838x   frame= 4386 fps= 20 q=-1.0 size=N/A time=00:03:07.74 bitrate=N/A speed=0.838x   [rtsp @ 0xaaaad67b83b0] max delay reached. need to consume packet
[rtsp @ 0xaaaad67b83b0] RTP: missed 105 packets
frame= 4396 fps= 19 q=-1.0 size=N/A time=00:03:10.27 bitrate=N/A speed=0.837x   frame= 4411 fps= 19 q=-1.0 size=N/A time=00:03:10.77 bitrate=N/A speed=0.838x   frame= 4424 fps= 19 q=-1.0 size=N/A time=00:03:11.21 bitrate=N/A speed=0.838x   frame= 4437 fps= 19 q=-1.0 size=N/A time=00:03:11.64 bitrate=N/A speed=0.838x   frame= 4450 fps= 19 q=-1.0 size=N/A time=00:03:12.07 bitrate=N/A speed=0.838x   [rtsp @ 0xaaaad67b83b0] max delay reached. need to consume packet
[rtsp @ 0xaaaad67b83b0] RTP: missed 134 packets
frame= 4460 fps= 19 q=-1.0 size=N/A time=00:03:15.44 bitrate=N/A speed=0.837x   frame= 4476 fps= 19 q=-1.0 size=N/A time=00:03:15.97 bitrate=N/A speed=0.838x   frame= 4489 fps= 19 q=-1.0 size=N/A time=00:03:16.41 bitrate=N/A speed=0.838x   frame= 4502 fps= 19 q=-1.0 size=N/A time=00:03:16.84 bitrate=N/A speed=0.838x   frame= 4515 fps= 19 q=-1.0 size=N/A time=00:03:17.27 bitrate=N/A speed=0.838x   frame= 4528 fps= 19 q=-1.0 size=N/A time=00:03:17.71 bitrate=N/A speed=0.838x   [rtsp @ 0xaaaad67b83b0] max delay reached. need to consume packet
[rtsp @ 0xaaaad67b83b0] RTP: missed 171 packets
frame= 4531 fps= 19 q=-1.0 size=N/A time=00:03:21.51 bitrate=N/A speed=0.837x   frame= 4548 fps= 19 q=-1.0 size=N/A time=00:03:22.07 bitrate=N/A speed=0.837x   frame= 4561 fps= 19 q=-1.0 size=N/A time=00:03:22.51 bitrate=N/A speed=0.837x   frame= 4574 fps= 19 q=-1.0 size=N/A time=00:03:22.94 bitrate=N/A speed=0.837x   frame= 4587 fps= 19 q=-1.0 size=N/A time=00:03:23.37 bitrate=N/A speed=0.837x   frame= 4600 fps= 19 q=-1.0 size=N/A time=00:03:23.81 bitrate=N/A speed=0.837x   frame= 4613 fps= 19 q=-1.0 size=N/A time=00:03:24.24 bitrate=N/A speed=0.837x   frame= 4626 fps= 19 q=-1.0 size=N/A time=00:03:24.67 bitrate=N/A speed=0.837x   frame= 4639 fps= 19 q=-1.0 size=N/A time=00:03:25.11 bitrate=N/A speed=0.837x   frame= 4652 fps= 19 q=-1.0 size=N/A time=00:03:25.54 bitrate=N/A speed=0.837x   frame= 4665 fps= 19 q=-1.0 size=N/A time=00:03:25.97 bitrate=N/A speed=0.837x   frame= 4678 fps= 19 q=-1.0 size=N/A time=00:03:26.41 bitrate=N/A speed=0.837x   frame= 4691 fps= 19 q=-1.0 size=N/A time=00:03:26.84 bitrate=N/A speed=0.837x   frame= 4704 fps= 19 q=-1.0 size=N/A time=00:03:27.27 bitrate=N/A speed=0.837x   frame= 4717 fps= 19 q=-1.0 size=N/A time=00:03:27.71 bitrate=N/A speed=0.837x   frame= 4730 fps= 19 q=-1.0 size=N/A time=00:03:28.14 bitrate=N/A speed=0.837x   frame= 4743 fps= 19 q=-1.0 size=N/A time=00:03:28.57 bitrate=N/A speed=0.837x   frame= 4756 fps= 19 q=-1.0 size=N/A time=00:03:29.01 bitrate=N/A speed=0.837x   frame= 4769 fps= 19 q=-1.0 size=N/A time=00:03:29.44 bitrate=N/A speed=0.837x   frame= 4782 fps= 19 q=-1.0 size=N/A time=00:03:29.87 bitrate=N/A speed=0.837x   frame= 4795 fps= 19 q=-1.0 size=N/A time=00:03:30.31 bitrate=N/A speed=0.837x   frame= 4808 fps= 19 q=-1.0 size=N/A time=00:03:30.74 bitrate=N/A speed=0.837x   frame= 4821 fps= 19 q=-1.0 size=N/A time=00:03:31.17 bitrate=N/A speed=0.837x   frame= 4834 fps= 19 q=-1.0 size=N/A time=00:03:31.61 bitrate=N/A speed=0.837x   frame= 4848 fps= 19 q=-1.0 size=N/A time=00:03:32.07 bitrate=N/A speed=0.837x   frame= 4861 fps= 19 q=-1.0 size=N/A time=00:03:32.51 bitrate=N/A speed=0.837x   frame= 4874 fps= 19 q=-1.0 size=N/A time=00:03:32.94 bitrate=N/A speed=0.837x   frame= 4887 fps= 19 q=-1.0 size=N/A time=00:03:33.37 bitrate=N/A speed=0.837x   frame= 4900 fps= 19 q=-1.0 size=N/A time=00:03:33.81 bitrate=N/A speed=0.837x   frame= 4913 fps= 19 q=-1.0 size=N/A time=00:03:34.24 bitrate=N/A speed=0.837x   frame= 4926 fps= 19 q=-1.0 size=N/A time=00:03:34.67 bitrate=N/A speed=0.837x   frame= 4939 fps= 19 q=-1.0 size=N/A time=00:03:35.11 bitrate=N/A speed=0.837x   frame= 4952 fps= 19 q=-1.0 size=N/A time=00:03:35.54 bitrate=N/A speed=0.837x   frame= 4965 fps= 19 q=-1.0 size=N/A time=00:03:35.97 bitrate=N/A speed=0.837x   frame= 4978 fps= 19 q=-1.0 size=N/A time=00:03:36.41 bitrate=N/A speed=0.837x   frame= 4991 fps= 19 q=-1.0 size=N/A time=00:03:36.84 bitrate=N/A speed=0.837x   frame= 5004 fps= 19 q=-1.0 size=N/A time=00:03:37.27 bitrate=N/A speed=0.837x   frame= 5017 fps= 19 q=-1.0 size=N/A time=00:03:37.71 bitrate=N/A speed=0.837x   frame= 5030 fps= 19 q=-1.0 size=N/A time=00:03:38.14 bitrate=N/A speed=0.837x   frame= 5043 fps= 19 q=-1.0 size=N/A time=00:03:38.57 bitrate=N/A speed=0.837x   frame= 5056 fps= 19 q=-1.0 size=N/A time=00:03:39.01 bitrate=N/A speed=0.837x   frame= 5069 fps= 19 q=-1.0 size=N/A time=00:03:39.44 bitrate=N/A speed=0.837x   frame= 5082 fps= 19 q=-1.0 size=N/A time=00:03:39.87 bitrate=N/A speed=0.837x   frame= 5096 fps= 19 q=-1.0 size=N/A time=00:03:40.31 bitrate=N/A speed=0.837x   frame= 5108 fps= 19 q=-1.0 size=N/A time=00:03:40.74 bitrate=N/A speed=0.837x   frame= 5121 fps= 19 q=-1.0 size=N/A time=00:03:41.17 bitrate=N/A speed=0.837x   frame= 5134 fps= 19 q=-1.0 size=N/A time=00:03:41.61 bitrate=N/A speed=0.837x   frame= 5148 fps= 19 q=-1.0 size=N/A time=00:03:42.07 bitrate=N/A speed=0.837x   frame= 5161 fps= 19 q=-1.0 size=N/A time=00:03:42.51 bitrate=N/A speed=0.837x   frame= 5174 fps= 19 q=-1.0 size=N/A time=00:03:42.94 bitrate=N/A speed=0.837x   frame= 5187 fps= 19 q=-1.0 size=N/A time=00:03:43.37 bitrate=N/A speed=0.837x   frame= 5200 fps= 19 q=-1.0 size=N/A time=00:03:43.81 bitrate=N/A speed=0.837x   frame= 5213 fps= 19 q=-1.0 size=N/A time=00:03:44.24 bitrate=N/A speed=0.837x   frame= 5226 fps= 19 q=-1.0 size=N/A time=00:03:44.67 bitrate=N/A speed=0.837x   frame= 5239 fps= 19 q=-1.0 size=N/A time=00:03:45.11 bitrate=N/A speed=0.837x   frame= 5252 fps= 19 q=-1.0 size=N/A time=00:03:45.54 bitrate=N/A speed=0.837x   frame= 5265 fps= 20 q=-1.0 size=N/A time=00:03:45.97 bitrate=N/A speed=0.837x   frame= 5278 fps= 20 q=-1.0 size=N/A time=00:03:46.41 bitrate=N/A speed=0.837x   frame= 5291 fps= 20 q=-1.0 size=N/A time=00:03:46.84 bitrate=N/A speed=0.837x   frame= 5304 fps= 20 q=-1.0 size=N/A time=00:03:47.27 bitrate=N/A speed=0.837x   frame= 5317 fps= 20 q=-1.0 size=N/A time=00:03:47.71 bitrate=N/A speed=0.837x   frame= 5330 fps= 20 q=-1.0 size=N/A time=00:03:48.14 bitrate=N/A speed=0.837x   frame= 5343 fps= 20 q=-1.0 size=N/A time=00:03:48.57 bitrate=N/A speed=0.837x   frame= 5356 fps= 20 q=-1.0 size=N/A time=00:03:49.01 bitrate=N/A speed=0.837x   frame= 5369 fps= 20 q=-1.0 size=N/A time=00:03:49.44 bitrate=N/A speed=0.837x   frame= 5382 fps= 20 q=-1.0 size=N/A time=00:03:49.87 bitrate=N/A speed=0.837x   frame= 5395 fps= 20 q=-1.0 size=N/A time=00:03:50.31 bitrate=N/A speed=0.837x   frame= 5408 fps= 20 q=-1.0 size=N/A time=00:03:50.74 bitrate=N/A speed=0.837x   frame= 5421 fps= 20 q=-1.0 size=N/A time=00:03:51.17 bitrate=N/A speed=0.837x   frame= 5434 fps= 20 q=-1.0 size=N/A time=00:03:51.61 bitrate=N/A speed=0.837x   frame= 5448 fps= 20 q=-1.0 size=N/A time=00:03:52.07 bitrate=N/A speed=0.837x   frame= 5461 fps= 20 q=-1.0 size=N/A time=00:03:52.51 bitrate=N/A speed=0.837x   frame= 5474 fps= 20 q=-1.0 size=N/A time=00:03:52.94 bitrate=N/A speed=0.837x   frame= 5487 fps= 20 q=-1.0 size=N/A time=00:03:53.37 bitrate=N/A speed=0.837x    


